<mxfile host="app.diagrams.net" modified="2021-01-14T10:49:44.831Z" agent="5.0 (Macintosh; Intel Mac OS X 10_14_6) AppleWebKit/537.36 (KHTML, like Gecko) Chrome/87.0.4280.141 Safari/537.36" etag="L9L7oe9Tp0hAUVpSaLaW" version="14.1.9" type="github">
  <diagram id="C5RBs43oDa-KdzZeNtuy" name="Page-1">
    <mxGraphModel dx="2066" dy="2431" grid="1" gridSize="10" guides="1" tooltips="1" connect="1" arrows="1" fold="1" page="1" pageScale="1" pageWidth="1300" pageHeight="1300" background="#283618" math="0" shadow="0">
      <root>
        <mxCell id="WIyWlLk6GJQsqaUBKTNV-0" />
        <mxCell id="WIyWlLk6GJQsqaUBKTNV-1" parent="WIyWlLk6GJQsqaUBKTNV-0" />
        <mxCell id="OpRhZhjNAaHMoUiv7lPD-0" value="前端收到中断消息" style="rounded=0;whiteSpace=wrap;html=1;sketch=0;strokeColor=#DDA15E;fillColor=#BC6C25;fontColor=#FEFAE0;fontSize=20;" parent="WIyWlLk6GJQsqaUBKTNV-1" vertex="1">
          <mxGeometry x="555.5" y="-100" width="190" height="60" as="geometry" />
        </mxCell>
        <mxCell id="OpRhZhjNAaHMoUiv7lPD-7" value="" style="edgeStyle=orthogonalEdgeStyle;curved=0;rounded=1;sketch=0;orthogonalLoop=1;jettySize=auto;html=1;strokeColor=#DDA15E;fillColor=#BC6C25;fontColor=#FEFAE0;fontSize=20;" parent="WIyWlLk6GJQsqaUBKTNV-1" source="OpRhZhjNAaHMoUiv7lPD-1" target="OpRhZhjNAaHMoUiv7lPD-6" edge="1">
          <mxGeometry relative="1" as="geometry" />
        </mxCell>
        <mxCell id="OpRhZhjNAaHMoUiv7lPD-1" value="读取action显示功能菜单" style="rounded=0;whiteSpace=wrap;html=1;sketch=0;strokeColor=#DDA15E;fillColor=#BC6C25;fontColor=#FEFAE0;fontSize=20;" parent="WIyWlLk6GJQsqaUBKTNV-1" vertex="1">
          <mxGeometry x="557.25" y="240" width="186.5" height="60" as="geometry" />
        </mxCell>
        <mxCell id="OpRhZhjNAaHMoUiv7lPD-17" value="" style="edgeStyle=orthogonalEdgeStyle;curved=0;rounded=1;sketch=0;orthogonalLoop=1;jettySize=auto;html=1;strokeColor=#DDA15E;fillColor=#BC6C25;fontSize=20;fontColor=#FEFAE0;" parent="WIyWlLk6GJQsqaUBKTNV-1" source="OpRhZhjNAaHMoUiv7lPD-5" target="OpRhZhjNAaHMoUiv7lPD-16" edge="1">
          <mxGeometry relative="1" as="geometry" />
        </mxCell>
        <mxCell id="OpRhZhjNAaHMoUiv7lPD-5" value="点击中断策略选择&lt;br&gt;action.json中type字段&lt;br style=&quot;font-size: 20px&quot;&gt;根据不同的类型&lt;br&gt;选择要执行的策略" style="strokeWidth=2;html=1;shape=mxgraph.flowchart.multi-document;whiteSpace=wrap;rounded=0;sketch=0;fillColor=#BC6C25;fontColor=#FEFAE0;fontSize=20;" parent="WIyWlLk6GJQsqaUBKTNV-1" vertex="1">
          <mxGeometry x="535" y="500" width="231" height="190" as="geometry" />
        </mxCell>
        <mxCell id="OpRhZhjNAaHMoUiv7lPD-8" value="" style="edgeStyle=orthogonalEdgeStyle;curved=0;rounded=1;sketch=0;orthogonalLoop=1;jettySize=auto;html=1;strokeColor=#DDA15E;fillColor=#BC6C25;fontColor=#FEFAE0;fontSize=20;" parent="WIyWlLk6GJQsqaUBKTNV-1" source="OpRhZhjNAaHMoUiv7lPD-6" target="OpRhZhjNAaHMoUiv7lPD-5" edge="1">
          <mxGeometry relative="1" as="geometry" />
        </mxCell>
        <mxCell id="OpRhZhjNAaHMoUiv7lPD-6" value="点击按钮选择，&lt;br&gt;例如吃碰杠过" style="rounded=0;whiteSpace=wrap;html=1;sketch=0;strokeColor=#DDA15E;fillColor=#BC6C25;fontColor=#FEFAE0;fontSize=20;" parent="WIyWlLk6GJQsqaUBKTNV-1" vertex="1">
          <mxGeometry x="560.5" y="360" width="180" height="60" as="geometry" />
        </mxCell>
        <mxCell id="OpRhZhjNAaHMoUiv7lPD-12" value="&lt;font style=&quot;font-size: 30px&quot;&gt;中断处理流程&lt;/font&gt;" style="text;html=1;strokeColor=none;fillColor=none;align=center;verticalAlign=middle;whiteSpace=wrap;rounded=0;sketch=0;fontSize=20;fontColor=#FEFAE0;" parent="WIyWlLk6GJQsqaUBKTNV-1" vertex="1">
          <mxGeometry x="535" y="-220" width="224.5" height="60" as="geometry" />
        </mxCell>
        <mxCell id="OpRhZhjNAaHMoUiv7lPD-19" value="" style="edgeStyle=orthogonalEdgeStyle;curved=0;rounded=1;sketch=0;orthogonalLoop=1;jettySize=auto;html=1;strokeColor=#DDA15E;fillColor=#BC6C25;fontSize=20;fontColor=#FEFAE0;" parent="WIyWlLk6GJQsqaUBKTNV-1" source="OpRhZhjNAaHMoUiv7lPD-16" target="OpRhZhjNAaHMoUiv7lPD-18" edge="1">
          <mxGeometry relative="1" as="geometry" />
        </mxCell>
        <mxCell id="OpRhZhjNAaHMoUiv7lPD-16" value="结果策略选择&lt;br&gt;action.json中show字段&lt;br style=&quot;font-size: 20px&quot;&gt;根据不同展示方式&lt;br&gt;处理结果门牌显示" style="strokeWidth=2;html=1;shape=mxgraph.flowchart.multi-document;whiteSpace=wrap;rounded=0;sketch=0;fillColor=#BC6C25;fontColor=#FEFAE0;fontSize=20;" parent="WIyWlLk6GJQsqaUBKTNV-1" vertex="1">
          <mxGeometry x="532" y="770" width="237" height="220" as="geometry" />
        </mxCell>
        <mxCell id="OpRhZhjNAaHMoUiv7lPD-18" value="结束" style="strokeWidth=2;html=1;shape=mxgraph.flowchart.terminator;whiteSpace=wrap;rounded=0;sketch=0;fillColor=#BC6C25;fontSize=20;fontColor=#FEFAE0;" parent="WIyWlLk6GJQsqaUBKTNV-1" vertex="1">
          <mxGeometry x="600" y="1060" width="100" height="60" as="geometry" />
        </mxCell>
        <mxCell id="kZYSqJ4vhdm0p2-LyzZb-1" value="" style="edgeStyle=orthogonalEdgeStyle;rounded=0;orthogonalLoop=1;jettySize=auto;html=1;" edge="1" parent="WIyWlLk6GJQsqaUBKTNV-1" source="kZYSqJ4vhdm0p2-LyzZb-0" target="OpRhZhjNAaHMoUiv7lPD-0">
          <mxGeometry relative="1" as="geometry" />
        </mxCell>
        <mxCell id="kZYSqJ4vhdm0p2-LyzZb-2" value="" style="edgeStyle=orthogonalEdgeStyle;rounded=0;orthogonalLoop=1;jettySize=auto;html=1;" edge="1" parent="WIyWlLk6GJQsqaUBKTNV-1" source="kZYSqJ4vhdm0p2-LyzZb-0" target="OpRhZhjNAaHMoUiv7lPD-1">
          <mxGeometry relative="1" as="geometry" />
        </mxCell>
        <mxCell id="kZYSqJ4vhdm0p2-LyzZb-0" value="展示中断策略选择&lt;br&gt;特殊例如，换三张，&lt;br&gt;扣牌，亮喜" style="strokeWidth=2;html=1;shape=mxgraph.flowchart.multi-document;whiteSpace=wrap;rounded=0;sketch=0;fillColor=#BC6C25;fontColor=#FEFAE0;fontSize=20;" vertex="1" parent="WIyWlLk6GJQsqaUBKTNV-1">
          <mxGeometry x="535" y="20" width="231" height="190" as="geometry" />
        </mxCell>
      </root>
    </mxGraphModel>
  </diagram>
</mxfile>
